<?xml version="1.0" standalone="no"?>
<!DOCTYPE svg PUBLIC "-//W3C//DTD SVG 20010904//EN"
 "http://www.w3.org/TR/2001/REC-SVG-20010904/DTD/svg10.dtd">
<svg version="1.0" xmlns="http://www.w3.org/2000/svg"
 width="64.000000pt" height="64.000000pt" viewBox="0 0 64.000000 64.000000"
 preserveAspectRatio="xMidYMid meet">

<g transform="translate(0.000000,64.000000) scale(0.100000,-0.100000)"
fill="#000000" stroke="none">
<path d="M255 601 c-84 -22 -154 -80 -196 -161 -34 -66 -33 -176 3 -245 31
-60 77 -105 138 -136 64 -32 176 -32 240 0 61 31 107 76 138 136 37 71 37 179
0 250 -49 94 -135 152 -235 160 -32 2 -71 1 -88 -4z m197 -48 c69 -39 122
-112 112 -157 -11 -55 -55 -126 -83 -133 -21 -5 -31 1 -64 38 -21 24 -59 81
-85 126 -45 82 -55 93 -67 73 -3 -5 -19 -10 -36 -10 -16 0 -29 5 -29 10 0 20
-21 9 -73 -39 -49 -46 -52 -53 -49 -88 3 -28 -1 -43 -14 -53 -15 -14 -16 -12
-11 20 10 70 18 94 47 135 77 111 231 145 352 78z m-208 -79 c21 -8 21 -24 0
-24 -9 0 -12 5 -8 13 6 10 4 10 -7 0 -18 -18 -39 -16 -39 2 0 15 26 20 54 9z
m46 -209 c0 -137 -4 -215 -10 -215 -6 0 -10 78 -10 215 0 137 4 215 10 215 6
0 10 -78 10 -215z m-133 153 c-2 -13 -4 -5 -4 17 -1 22 1 32 4 23 2 -10 2 -28
0 -40z m178 -18 c24 -47 33 -90 18 -90 -4 0 -17 10 -30 22 -18 17 -23 32 -23
70 0 26 2 48 5 48 2 0 16 -22 30 -50z m-216 -36 c-6 -8 -15 -14 -20 -14 -16 0
-10 53 9 73 17 19 17 19 20 -12 2 -18 -2 -39 -9 -47z m71 72 c0 -3 -4 -8 -10
-11 -5 -3 -10 -1 -10 4 0 6 5 11 10 11 6 0 10 -2 10 -4z m56 -13 c21 -27 16
-43 -11 -43 -21 0 -25 5 -25 30 0 34 16 39 36 13z m-59 -138 c0 -69 -3 -125
-8 -125 -10 0 -13 233 -2 243 3 4 7 7 7 7 1 0 2 -56 3 -125z m399 51 c2 -25
-1 -46 -5 -46 -5 0 -7 10 -4 23 4 17 0 15 -16 -10 -32 -51 -43 -39 -16 16 14
27 25 55 25 62 0 31 13 -5 16 -45z m-429 -128 c-2 -35 -3 -9 -3 57 0 66 1 94
3 63 2 -32 2 -86 0 -120z m103 146 c0 -11 -8 -14 -32 -12 -46 4 -49 28 -4 28
26 0 36 -4 36 -16z m-120 -98 c0 -108 -9 -134 -35 -100 -21 28 -20 162 2 186
9 10 20 18 25 18 4 0 8 -47 8 -104z m270 24 c0 -7 -7 -10 -16 -6 -9 3 -18 6
-20 6 -2 0 -4 14 -4 31 l0 32 20 -26 c11 -14 20 -31 20 -37z m-150 25 c0 -21
-5 -25 -30 -25 -25 0 -30 4 -30 25 0 21 5 25 30 25 25 0 30 -4 30 -25z m60
-46 c0 -33 -4 -59 -10 -59 -6 0 -10 29 -10 66 0 41 4 63 10 59 6 -3 10 -33 10
-66z m-242 -26 c-4 -26 -4 -26 -16 11 -9 31 -9 43 1 55 10 12 12 10 15 -12 2
-15 2 -39 0 -54z m280 14 c-5 -52 -28 -45 -28 8 0 42 2 46 16 35 9 -8 14 -25
12 -43z m-114 17 c19 -7 22 -34 4 -34 -30 0 -58 13 -58 26 0 15 27 18 54 8z
m166 -23 c0 -5 -9 -11 -20 -14 -16 -4 -20 0 -20 19 0 22 3 23 20 14 11 -6 20
-15 20 -19z m167 23 c-3 -3 -12 -4 -19 -1 -8 3 -5 6 6 6 11 1 17 -2 13 -5z
m-90 -39 c0 -8 -4 -12 -9 -9 -4 3 -8 9 -8 15 0 5 4 9 8 9 5 0 9 -7 9 -15z
m-37 -5 c0 -5 -7 -10 -15 -10 -8 0 -15 5 -15 10 0 6 7 10 15 10 8 0 15 -4 15
-10z m-190 -15 c0 -14 -29 -35 -49 -35 -6 0 -11 11 -11 25 0 21 5 25 30 25 20
0 30 -5 30 -15z m150 5 c0 -6 -8 -14 -17 -17 -15 -6 -15 -7 3 -14 17 -7 17 -8
1 -8 -23 -1 -34 28 -16 40 19 12 29 11 29 -1z m138 -31 c-37 -67 -114 -116
-199 -126 -47 -6 -49 -5 -49 19 0 20 12 30 70 58 49 24 66 37 57 43 -8 6 -7 7
6 3 23 -7 49 3 40 17 -3 6 -1 7 5 3 6 -3 26 0 44 8 49 22 51 20 26 -25z m-188
11 c0 -10 -32 -30 -49 -30 -18 0 -12 28 7 33 30 8 42 7 42 -3z m-100 -36 c0
-17 -84 -59 -100 -49 -22 13 -8 34 33 48 55 20 67 20 67 1z m60 -18 c0 -3 -4
-8 -10 -11 -5 -3 -10 -1 -10 4 0 6 5 11 10 11 6 0 10 -2 10 -4z m-60 -66 c0
-5 -8 -10 -17 -10 -15 0 -16 2 -3 10 19 12 20 12 20 0z"/>
<path d="M407 462 c-18 -11 -27 -24 -25 -37 2 -16 12 -21 49 -23 59 -4 78 15
54 52 -20 30 -39 32 -78 8z m63 1 c0 -5 3 -18 6 -30 6 -21 3 -23 -34 -23 -50
0 -63 17 -32 42 22 18 60 25 60 11z"/>
</g>
</svg>
